<svg width="40" height="40" viewBox="0 0 40 40" fill="none" xmlns="http://www.w3.org/2000/svg">
<path d="M11.5298 23.6767H8.97445C7.87375 23.6767 6.93607 23.2778 6.16139 22.4798C5.38713 21.6814 5 20.715 5 19.5805V16.8493C5 15.7149 5.38713 14.7485 6.16139 13.9501C6.93607 13.1521 7.87375 12.7531 8.97445 12.7531H18.1543L24.9067 8.6468C25.5694 8.23682 26.2342 8.22858 26.901 8.62207C27.5682 9.01557 27.9018 9.60074 27.9018 10.3776V26.0523C27.9018 26.8291 27.5682 27.4143 26.901 27.8078C26.2342 28.2013 25.5694 28.1931 24.9067 27.7831L18.1543 23.6767H13.9903V32.065C13.9903 32.426 13.8729 32.7276 13.6379 32.9697C13.4029 33.2119 13.1103 33.333 12.7601 33.333C12.4098 33.333 12.1172 33.2119 11.8822 32.9697C11.6473 32.7276 11.5298 32.426 11.5298 32.065V23.6767ZM25.4413 25.1108V11.3191L18.8451 15.2891H8.97445C8.59593 15.2891 8.24899 15.4516 7.93363 15.7766C7.61826 16.1016 7.46058 16.4592 7.46058 16.8493V19.5805C7.46058 19.9707 7.61826 20.3282 7.93363 20.6533C8.24899 20.9783 8.59593 21.1408 8.97445 21.1408H18.8451L25.4413 25.1108ZM32.2552 25.54V10.8898C33.0787 11.6768 33.742 12.71 34.2452 13.9894C34.7484 15.2688 35 16.6773 35 18.2149C35 19.7526 34.7484 21.1611 34.2452 22.4405C33.742 23.7199 33.0787 24.753 32.2552 25.54Z" fill="#6832DB"/>
</svg>
