<svg width="72" height="72" viewBox="0 0 72 72" fill="none" xmlns="http://www.w3.org/2000/svg">
<path d="M10.4258 52.8848V34.8848C10.4258 27.7239 13.2704 20.8564 18.3339 15.7929C23.3974 10.7294 30.2649 7.88477 37.4258 7.88477C44.5866 7.88477 51.4542 10.7294 56.5177 15.7929C61.5811 20.8564 64.4258 27.7239 64.4258 34.8848V52.8848" stroke="#CFBAFF" stroke-width="6" stroke-linecap="round" stroke-linejoin="round"/>
<path d="M64.4258 55.8848C64.4258 57.4761 63.7936 59.0022 62.6684 60.1274C61.5432 61.2526 60.0171 61.8848 58.4258 61.8848H55.4258C53.8345 61.8848 52.3084 61.2526 51.1831 60.1274C50.0579 59.0022 49.4258 57.4761 49.4258 55.8848V46.8848C49.4258 45.2935 50.0579 43.7673 51.1831 42.6421C52.3084 41.5169 53.8345 40.8848 55.4258 40.8848H64.4258V55.8848ZM10.4258 55.8848C10.4258 57.4761 11.0579 59.0022 12.1831 60.1274C13.3084 61.2526 14.8345 61.8848 16.4258 61.8848H19.4258C21.0171 61.8848 22.5432 61.2526 23.6684 60.1274C24.7936 59.0022 25.4258 57.4761 25.4258 55.8848V46.8848C25.4258 45.2935 24.7936 43.7673 23.6684 42.6421C22.5432 41.5169 21.0171 40.8848 19.4258 40.8848H10.4258V55.8848Z" stroke="#CFBAFF" stroke-width="6" stroke-linecap="round" stroke-linejoin="round"/>
</svg>
