<svg width="182" height="37" viewBox="0 0 182 37" fill="none" xmlns="http://www.w3.org/2000/svg">
<path d="M89.0117 5.8291H97.8888C99.6763 6.0931 100.683 6.86311 100.908 8.13362V14.1397C100.683 15.4487 99.6763 16.2022 97.8888 16.4057H93.8683L95.0123 14.1012H96.4203C97.3993 14.1012 97.8943 13.6777 97.8943 12.8362V9.49213C97.8943 8.58463 97.3773 8.13362 96.3488 8.13362H92.0587V16.4057H89.0172V5.8291H89.0117Z" fill="#4F397B"/>
<path d="M60.7095 14.1397C60.484 15.4487 59.4774 16.2022 57.6899 16.4057H51.8379C50.0504 16.2022 49.0439 15.4487 48.8184 14.1397V8.13362C49.0439 6.86311 50.0504 6.0931 51.8379 5.8291H60.693L59.5544 8.13362H53.3834C52.3494 8.13362 51.8379 8.58463 51.8379 9.49213V12.8362C51.8379 13.6777 52.3274 14.1012 53.3119 14.1012H56.2214C57.2004 14.1012 57.6954 13.6777 57.6954 12.8362V12.3082H53.7079V10.0036H60.715V14.1397H60.7095Z" fill="#4F397B"/>
<path d="M71.0376 16.4057H65.1855C63.398 16.1417 62.3915 15.3717 62.166 14.1012V8.09512C62.3915 6.78611 63.398 6.0326 65.1855 5.8291H71.0376C72.8251 6.0326 73.8316 6.78611 74.0571 8.09512V14.1012C73.8316 15.3717 72.8251 16.1417 71.0376 16.4057ZM71.0376 12.7427V9.39863C71.0376 8.55713 70.5481 8.13362 69.5636 8.13362H66.6541C65.6695 8.13362 65.18 8.55713 65.18 9.39863V12.7427C65.18 13.6502 65.697 14.1012 66.7256 14.1012H69.4811C70.5151 14.1012 71.0266 13.6502 71.0266 12.7427H71.0376Z" fill="#4F397B"/>
<path d="M84.5334 16.4057H78.5273C76.7398 16.1417 75.7333 15.3717 75.5078 14.1012V8.09512C75.7333 6.78611 76.7398 6.0326 78.5273 5.8291H84.5334C86.3209 6.0326 87.3274 6.78611 87.5529 8.09512V14.1012C87.3274 15.3717 86.3209 16.1417 84.5334 16.4057ZM84.5334 12.7427V9.39863C84.5334 8.55713 84.0439 8.13362 83.0594 8.13362H80.0013C79.0168 8.13362 78.5273 8.55713 78.5273 9.39863V12.7427C78.5273 13.6502 79.0443 14.1012 80.0729 14.1012H82.9824C84.0164 14.1012 84.5279 13.6502 84.5279 12.7427H84.5334Z" fill="#4F397B"/>
<path d="M134.223 29.4024C133.998 30.7114 132.991 31.4649 131.204 31.6684H125.352C123.564 31.4649 122.558 30.7114 122.332 29.4024V23.3963C122.558 22.1258 123.564 21.3558 125.352 21.0918H134.207L133.068 23.3963H126.897C125.863 23.3963 125.352 23.8473 125.352 24.7548V28.0989C125.352 28.9404 125.841 29.3639 126.826 29.3639H129.735C130.714 29.3639 131.209 28.9404 131.209 28.0989V27.5709H127.222V25.2663H134.229V29.4024H134.223Z" fill="#4F397B"/>
<path d="M104.352 21.0918H107.371V31.6629H104.352V21.0918Z" fill="#4F397B"/>
<path d="M62.876 31.6687H59.8564V24.6617C59.8564 23.8202 59.3669 23.3967 58.3824 23.3967H57.6344V31.6687H54.6149V23.3967H52.3379V31.6687H49.3184V21.0977H59.8564C61.644 21.3012 62.6505 22.0547 62.876 23.3637V31.6687Z" fill="#4F397B"/>
<path d="M91.0039 21.0918H99.881C101.668 21.3558 102.675 22.1258 102.901 23.3963V31.6684H99.881V24.7603C99.881 23.8528 99.364 23.4018 98.3355 23.4018H94.0454V31.6739H91.0039V21.1028V21.0918Z" fill="#4F397B"/>
<path d="M108.828 21.0918H117.854C119.641 21.3558 120.648 22.1258 120.873 23.3963V31.6684H117.854V24.7603C117.854 23.8528 117.337 23.4018 116.308 23.4018H111.87V31.6739H108.828V21.1028V21.0918Z" fill="#4F397B"/>
<path d="M73.1782 31.6684H67.3262C65.5386 31.4044 64.5321 30.6344 64.3066 29.3639V23.3578C64.5321 22.0488 65.5386 21.2953 67.3262 21.0918H73.1782C74.9657 21.2953 75.9722 22.0488 76.1977 23.3578V29.3639C75.9722 30.6344 74.9657 31.4044 73.1782 31.6684ZM73.1782 28.0054V24.6613C73.1782 23.8198 72.6887 23.3963 71.7042 23.3963H68.7947C67.8157 23.3963 67.3207 23.8198 67.3207 24.6613V28.0054C67.3207 28.9129 67.8377 29.3639 68.8662 29.3639H71.6217C72.6557 29.3639 73.1672 28.9129 73.1672 28.0054H73.1782Z" fill="#4F397B"/>
<path d="M86.5259 21.0918C88.3134 21.3558 89.3199 22.1258 89.5454 23.3963V26.4158C89.3804 27.3343 88.8414 27.9834 87.9229 28.3629L89.5289 31.6684H86.1299L84.5624 28.6874H82.5053V26.3828H85.0574C86.0364 26.3828 86.5314 25.9593 86.5314 25.1178V24.7603C86.5314 23.8528 86.0144 23.4018 84.9859 23.4018H80.6958V31.6739H77.6543V21.1028H86.5314L86.5259 21.0918Z" fill="#4F397B"/>
<path d="M158.433 29.3642H162.399L159.434 23.3967L155.337 31.6687H151.789L157.036 21.0977H161.832L167.079 31.6687H157.289L158.428 29.3642H158.433Z" fill="#4F397B"/>
<path d="M167.812 21.0918H170.832V25.1343C170.832 25.9758 171.322 26.3993 172.306 26.3993H176.514C177.493 26.3993 177.988 25.9758 177.988 25.1343V21.0918H181.007V26.4323C180.782 27.7414 179.775 28.4949 177.988 28.6984H175.925V31.6629H172.906V28.6984H170.843C169.055 28.4949 168.049 27.7414 167.823 26.4323V21.0918H167.812Z" fill="#4F397B"/>
<path d="M139.066 21.0918H148.042C149.83 21.3558 150.837 22.1258 151.062 23.3963V26.4158C150.837 27.7249 149.83 28.4784 148.042 28.6819H143.824L144.968 26.3773H146.574C147.553 26.3773 148.048 25.9538 148.048 25.1123V24.7548C148.048 23.8473 147.531 23.3963 146.502 23.3963H142.113V31.6684H139.072V21.0973L139.066 21.0918Z" fill="#4F397B"/>
<path d="M106.253 13.8372L108.107 16.4003H107.303L105.807 14.3267L104.999 15.2397V16.4003H104.355V11.8352H104.999V14.2607L107.193 11.8242H108.068L106.253 13.8372Z" fill="#808285"/>
<path d="M108.602 12.9078C108.795 12.5558 109.064 12.2753 109.411 12.0773C109.757 11.8793 110.148 11.7803 110.588 11.7803C111.028 11.7803 111.418 11.8793 111.765 12.0773C112.106 12.2753 112.375 12.5503 112.573 12.9078C112.766 13.2598 112.865 13.6668 112.865 14.1178C112.865 14.5688 112.766 14.9703 112.573 15.3278C112.381 15.6798 112.111 15.9603 111.765 16.1583C111.424 16.3563 111.028 16.4553 110.588 16.4553C110.148 16.4553 109.757 16.3563 109.411 16.1583C109.064 15.9603 108.795 15.6853 108.602 15.3278C108.41 14.9758 108.311 14.5688 108.311 14.1178C108.311 13.6668 108.41 13.2653 108.602 12.9078ZM111.44 15.6633C111.688 15.5148 111.88 15.3058 112.012 15.0363C112.15 14.7668 112.216 14.4643 112.216 14.1123C112.216 13.7603 112.15 13.4578 112.012 13.1883C111.875 12.9188 111.682 12.7153 111.44 12.5668C111.193 12.4183 110.912 12.3413 110.593 12.3413C110.274 12.3413 109.983 12.4128 109.741 12.5613C109.493 12.7098 109.306 12.9188 109.169 13.1828C109.037 13.4523 108.965 13.7603 108.965 14.1068C108.965 14.4533 109.031 14.7613 109.169 15.0308C109.301 15.3003 109.493 15.5093 109.741 15.6523C109.988 15.8008 110.274 15.8723 110.593 15.8723C110.912 15.8723 111.193 15.7953 111.44 15.6468V15.6633Z" fill="#808285"/>
<path d="M113.553 11.8301H115.527C115.802 11.8301 116.05 11.8906 116.264 12.0171C116.479 12.1436 116.644 12.3196 116.765 12.5451C116.886 12.7706 116.946 13.0291 116.946 13.3206C116.946 13.6341 116.858 13.9146 116.688 14.1621C116.512 14.4096 116.259 14.5911 115.929 14.7121L117.166 16.4006H116.358L115.181 14.8001H114.202V16.4006H113.553V11.8301ZM116.066 13.9806C116.22 13.8101 116.297 13.5901 116.297 13.3096C116.297 13.0291 116.22 12.8091 116.066 12.6441C115.912 12.4791 115.709 12.3911 115.456 12.3911H114.202V14.2391H115.456C115.709 14.2391 115.912 14.1566 116.066 13.9861V13.9806Z" fill="#808285"/>
<path d="M121.109 12.385H118.557V13.7655H120.79V14.3265H118.557V15.8445H121.109V16.4055H117.908V11.835H121.109V12.396V12.385Z" fill="#808285"/>
<path d="M126.18 16.4006H125.482L124.97 15.1521H122.875L122.352 16.4006H121.648L123.557 11.8301H124.305L126.175 16.4006H126.18ZM124.739 14.5911L123.936 12.6221L123.111 14.5911H124.739Z" fill="#808285"/>
<path d="M128.426 11.8301H130.29C130.576 11.8301 130.829 11.8906 131.055 12.0171C131.28 12.1436 131.451 12.3141 131.577 12.5396C131.704 12.7651 131.764 13.0236 131.764 13.3096C131.764 13.5956 131.704 13.8541 131.577 14.0796C131.451 14.3051 131.28 14.4811 131.055 14.6076C130.829 14.7341 130.576 14.7946 130.29 14.7946H129.075V16.4061H128.431V11.8356L128.426 11.8301ZM130.89 13.9806C131.049 13.8101 131.126 13.5901 131.126 13.3096C131.126 13.0291 131.049 12.8146 130.89 12.6441C130.73 12.4736 130.527 12.3911 130.268 12.3911H129.064V14.2391H130.268C130.527 14.2391 130.73 14.1566 130.89 13.9861V13.9806Z" fill="#808285"/>
<path d="M136.136 16.4006H135.437L134.926 15.1521H132.83L132.308 16.4006H131.604L133.512 11.8301H134.26L136.13 16.4006H136.136ZM134.695 14.5911L133.892 12.6221L133.067 14.5911H134.695Z" fill="#808285"/>
<path d="M138.31 14.6186V16.4006H137.667V14.6186L135.852 11.8301H136.622L137.991 14.0191L139.355 11.8301H140.125L138.31 14.6186Z" fill="#808285"/>
<path d="M141.399 12.9521V16.4006H140.756V11.8301H141.449L143.115 14.5251L144.776 11.8301H145.48V16.4006H144.837V12.9466L143.121 15.6306L141.405 12.9521H141.399Z" fill="#808285"/>
<path d="M149.596 12.385H147.044V13.7655H149.277V14.3265H147.044V15.8445H149.596V16.4055H146.395V11.835H149.596V12.396V12.385Z" fill="#808285"/>
<path d="M154.319 16.4006H153.62L151.085 12.8641V16.4006H150.441V11.8301H151.134L153.67 15.3721V11.8301H154.319V16.4006Z" fill="#808285"/>
<path d="M158.35 12.3852H156.992V16.4003H156.348V12.3852H154.979V11.8242H158.35V12.3852Z" fill="#808285"/>
<path d="M161.612 16.1525C161.271 15.9544 161.002 15.6794 160.809 15.3219C160.617 14.9699 160.518 14.5629 160.518 14.1119C160.518 13.6609 160.611 13.2594 160.804 12.9019C160.996 12.5499 161.26 12.2694 161.601 12.0714C161.942 11.8734 162.327 11.7744 162.762 11.7744C163.07 11.7744 163.367 11.8349 163.642 11.9559C163.917 12.0769 164.164 12.2419 164.368 12.4564L163.944 12.8744C163.801 12.7094 163.631 12.5774 163.422 12.4839C163.213 12.3904 162.998 12.3409 162.767 12.3409C162.454 12.3409 162.173 12.4124 161.931 12.5609C161.689 12.7094 161.502 12.9129 161.365 13.1824C161.227 13.4519 161.161 13.7599 161.161 14.1119C161.161 14.4639 161.227 14.7664 161.365 15.0359C161.497 15.3054 161.689 15.5089 161.931 15.6629C162.173 15.8114 162.454 15.8884 162.767 15.8884C163.004 15.8884 163.218 15.8444 163.416 15.7509C163.614 15.6574 163.779 15.5309 163.917 15.3769L164.362 15.7729C164.153 15.9929 163.911 16.1635 163.647 16.2845C163.378 16.4055 163.086 16.4605 162.767 16.4605C162.333 16.4605 161.942 16.3615 161.601 16.1635L161.612 16.1525Z" fill="#808285"/>
<path d="M165.034 13.9365C165.166 13.689 165.353 13.491 165.589 13.3535C165.826 13.2105 166.095 13.1445 166.403 13.1445C166.711 13.1445 166.981 13.216 167.217 13.3535C167.454 13.4965 167.641 13.689 167.773 13.9365C167.905 14.184 167.971 14.47 167.971 14.789C167.971 15.108 167.905 15.3831 167.773 15.6361C167.641 15.8891 167.454 16.0816 167.217 16.2191C166.981 16.3621 166.706 16.4281 166.403 16.4281C166.101 16.4281 165.831 16.3566 165.589 16.2191C165.353 16.0761 165.166 15.8836 165.034 15.6361C164.902 15.3886 164.836 15.108 164.836 14.789C164.836 14.47 164.902 14.184 165.034 13.9365ZM167.069 15.5811C167.239 15.3776 167.327 15.1135 167.327 14.7835C167.327 14.4535 167.239 14.1895 167.069 13.986C166.898 13.7825 166.673 13.6835 166.403 13.6835C166.134 13.6835 165.908 13.7825 165.738 13.986C165.567 14.1895 165.485 14.4535 165.485 14.7835C165.485 15.1135 165.567 15.3776 165.738 15.5811C165.908 15.7846 166.128 15.8836 166.403 15.8836C166.678 15.8836 166.898 15.7846 167.069 15.5811Z" fill="#808285"/>
<path d="M169.258 15.8389C169.329 15.9104 169.362 15.9984 169.362 16.1139C169.362 16.2294 169.329 16.3229 169.258 16.3944C169.186 16.4659 169.098 16.4989 168.983 16.4989C168.867 16.4989 168.779 16.4659 168.708 16.3944C168.636 16.3229 168.598 16.2294 168.598 16.1139C168.598 15.9984 168.636 15.9104 168.708 15.8389C168.779 15.7674 168.873 15.7344 168.983 15.7344C169.093 15.7344 169.186 15.7674 169.258 15.8389Z" fill="#808285"/>
<path d="M170.693 17.2029H170.215L170.446 15.7949H171.111L170.693 17.2029Z" fill="#808285"/>
<path d="M172.915 15.8396H175.181V16.4006H172.266V11.8301H172.915V15.8451V15.8396Z" fill="#808285"/>
<path d="M177.281 16.3177C177.22 16.3452 177.154 16.3617 177.077 16.3782C177 16.3947 176.918 16.4002 176.83 16.4002C176.555 16.4002 176.324 16.3067 176.148 16.1252C175.972 15.9437 175.884 15.7072 175.884 15.4157V13.7381H175.328V13.1716H175.884V12.2861H176.533V13.1716H177.358V13.7381H176.533V15.4157C176.533 15.5367 176.566 15.6357 176.637 15.7127C176.703 15.7897 176.791 15.8282 176.896 15.8282C176.956 15.8282 177.022 15.8172 177.094 15.7897C177.16 15.7622 177.198 15.7512 177.209 15.7402L177.407 16.2627C177.407 16.2627 177.347 16.2902 177.286 16.3122L177.281 16.3177Z" fill="#808285"/>
<path d="M178.537 16.2246C178.301 16.0871 178.119 15.8946 177.987 15.6416C177.855 15.3941 177.789 15.1081 177.789 14.7891C177.789 14.4701 177.855 14.1841 177.987 13.9366C178.119 13.6836 178.301 13.4911 178.537 13.3536C178.774 13.2161 179.038 13.1446 179.34 13.1446C179.516 13.1446 179.698 13.1886 179.885 13.2766C180.072 13.3646 180.231 13.5131 180.358 13.7166V11.8301H181.007V16.4061H180.358V15.8671C180.226 16.0596 180.066 16.2026 179.874 16.2961C179.687 16.3896 179.505 16.4336 179.335 16.4336C179.038 16.4336 178.768 16.3621 178.537 16.2246ZM178.697 15.6031C178.873 15.8121 179.098 15.9111 179.379 15.9111C179.555 15.9111 179.714 15.8616 179.868 15.7626C180.017 15.6636 180.138 15.5316 180.226 15.3611C180.314 15.1906 180.358 15.0036 180.358 14.8001C180.358 14.5966 180.314 14.4151 180.226 14.2446C180.138 14.0741 180.017 13.9421 179.868 13.8376C179.72 13.7386 179.56 13.6891 179.384 13.6891C179.104 13.6891 178.873 13.7936 178.702 13.9971C178.526 14.2006 178.444 14.4701 178.444 14.7946C178.444 15.1191 178.532 15.3886 178.702 15.5976L178.697 15.6031Z" fill="#808285"/>
<path d="M29.8755 10.8011L35.6065 1H32.0645L26.2949 10.8011H29.8755Z" fill="#F68C47"/>
<path d="M24.9857 23.1102V32.2238L6.79155 10.8011H24.1772L29.8422 1H9.22807C4.68503 1 1 4.68503 1 9.22807V28.2692C1 32.8123 4.68503 36.4973 9.22807 36.4973H27.3782C31.9213 36.4973 35.6063 32.8123 35.6063 28.2692V14.9371L21.8177 20.0522L24.9857 23.1157V23.1102Z" fill="#4F397B"/>
</svg>
