<svg width="56" height="56" viewBox="0 0 56 56" fill="none" xmlns="http://www.w3.org/2000/svg">
<path d="M22.0359 32.1843C23.6185 32.1843 24.958 31.6407 26.0544 30.5536C27.1507 29.4665 27.6989 28.1383 27.6989 26.5691C27.6989 24.9998 27.1507 23.6716 26.0544 22.5845C24.958 21.4974 23.6185 20.9539 22.0359 20.9539C20.4533 20.9539 19.1139 21.4974 18.0175 22.5845C16.9212 23.6716 16.373 24.9998 16.373 26.5691C16.373 28.1383 16.9212 29.4665 18.0175 30.5536C19.1139 31.6407 20.4533 32.1843 22.0359 32.1843ZM36.9776 39.1387C38.1034 39.1387 39.0672 38.7412 39.8691 37.946C40.671 37.1509 41.0719 36.195 41.0719 35.0784V18.0598C41.0719 16.9435 40.671 15.9878 39.8691 15.1927C39.0672 14.3976 38.1034 14 36.9776 14H7.09486C5.9687 14 5.00468 14.3976 4.20281 15.1927C3.40094 15.9878 3 16.9435 3 18.0598V35.0784C3 36.195 3.40094 37.1509 4.20281 37.946C5.00468 38.7412 5.9687 39.1387 7.09486 39.1387H36.9776ZM33.5798 35.7696H10.4921C10.4921 34.6495 10.0911 33.6927 9.28925 32.8991C8.48738 32.1059 7.52355 31.7092 6.39776 31.7092V21.4289C7.52732 21.4289 8.4921 21.0314 9.29208 20.2362C10.0921 19.4411 10.4921 18.4854 10.4921 17.3691H33.5798C33.5798 18.4892 33.9808 19.4458 34.7826 20.2391C35.5845 21.0323 36.5483 21.4289 37.6741 21.4289V31.7092C36.5446 31.7092 35.5798 32.1068 34.7798 32.9019C33.9798 33.697 33.5798 34.6529 33.5798 35.7696ZM9.75191 45.3154C9.75191 46.2458 10.5061 47 11.4365 47H44.9051C46.0313 47 46.9953 46.6024 47.7972 45.8073C48.5991 45.0122 49 44.0563 49 42.9396V20.695H45.6022V42.9396C45.6022 43.1122 45.5298 43.2706 45.3848 43.4147C45.2394 43.5588 45.0796 43.6309 44.9051 43.6309H11.4365C10.5061 43.6309 9.75191 44.3851 9.75191 45.3154ZM36.9776 35.7696H37.6741V17.3691H36.9776C37.1664 17.3691 37.3296 17.4374 37.4674 17.5741C37.6052 17.7107 37.6741 17.8726 37.6741 18.0598V35.0784C37.6741 35.2655 37.6052 35.4274 37.4674 35.5641C37.3296 35.7011 37.1664 35.7696 36.9776 35.7696Z" fill="#CFD7E5"/>
<rect x="45.5508" y="4.8125" width="3.4" height="31.5" rx="1.7" fill="#CFD7E5"/>
<path d="M43 11L47.5 4L52 11" stroke="#CFD7E5" stroke-width="3" stroke-linecap="round"/>
</svg>
