<svg width="56" height="56" viewBox="0 0 56 56" fill="none" xmlns="http://www.w3.org/2000/svg">
<path d="M28 39.0379C28.5339 39.0379 28.9815 38.8572 29.3428 38.496C29.7041 38.1347 29.8847 37.6871 29.8847 37.1531C29.8847 36.6192 29.7041 36.1716 29.3428 35.8103C28.9815 35.4494 28.5339 35.269 28 35.269C27.466 35.269 27.0184 35.4494 26.6571 35.8103C26.2958 36.1716 26.1152 36.6192 26.1152 37.1531C26.1152 37.6871 26.2958 38.1347 26.6571 38.496C27.0184 38.8572 27.466 39.0379 28 39.0379ZM26.25 30.5125H29.75V16.5125H26.25V30.5125ZM28 52.7509L20.6721 45.4995H10.5V35.3273L3.24854 27.9995L10.5 20.6716V10.4995H20.6721L28 3.24805L35.3278 10.4995H45.5V20.6716L52.7514 27.9995L45.5 35.3273V45.4995H35.3278L28 52.7509ZM28 47.8328L33.8333 41.9995H42V33.8328L47.8333 27.9995L42 22.1661V13.9995H33.8333L28 8.16613L22.1666 13.9995H14V22.1661L8.16662 27.9995L14 33.8328V41.9995H22.1666L28 47.8328Z" fill="#CFD7E5"/>
</svg>
