<svg width="306" height="32" viewBox="0 0 306 32" fill="none" xmlns="http://www.w3.org/2000/svg">
<rect width="306" height="32" rx="16" fill="#F5F7FA"/>
<rect x="274" width="32" height="32" rx="16" fill="#6832DB"/>
<rect x="0.5" y="0.5" width="31" height="31" rx="15.5" stroke="#6832DB"/>
<path d="M20.6084 10.6094V11.5117C20.6084 12.4551 20.6084 13.5625 20.2871 15.0801H22.0713V15.9688H10.9424V15.0801H19.207C19.5488 13.5488 19.5488 12.4551 19.542 11.5117V11.498H12.3506V10.6094H20.6084ZM12.3096 21.9434V17.6504H20.6631V21.9434H12.3096ZM13.376 21.0684H19.5967V18.498H13.376V21.0684Z" fill="#6D7687"/>
<path d="M59.7861 16.2832V17.1582H56.0127V19.7012H61.0713V20.5898H49.9424V19.7012H54.9463V17.1582H51.3779V10.9512H59.6494V11.8398H52.4717V13.5762H59.3896V14.4512H52.4717V16.2832H59.7861Z" fill="#FF843C"/>
<path d="M92.3877 10.4043C94.2061 10.4111 95.5254 11.5186 95.5322 13.0977C95.5254 14.6836 94.2061 15.7773 92.3877 15.7773C90.5488 15.7773 89.2227 14.6836 89.2295 13.0977C89.2227 11.5186 90.5488 10.4111 92.3877 10.4043ZM90.2822 13.0977C90.2686 14.1641 91.1641 14.9023 92.3877 14.9023C93.5908 14.9023 94.4932 14.1641 94.4932 13.0977C94.4932 12.0449 93.5908 11.2998 92.3877 11.3066C91.1641 11.2998 90.2686 12.0449 90.2822 13.0977ZM91.0752 17.6504V16.7891H98.9775V19.7148H92.1553V21.082H99.415V21.9434H91.1025V18.9082H97.9111V17.6504H91.0752ZM97.9111 16.2012V9.95312H98.9775V16.2012H97.9111Z" fill="#FF843C"/>
<path d="M137.964 9.9668V17.1309H136.884V16.4609H134.423V15.75H136.884V9.9668H137.964ZM127.901 14.5469C130.253 14.5605 133.261 14.5332 135.886 14.2461L135.954 14.9434C134.765 15.1143 133.527 15.2168 132.317 15.2715V17.1719H131.265V15.3125C130.116 15.3535 129.009 15.3535 128.024 15.3535L127.901 14.5469ZM128.845 12.0312C128.845 10.9033 130.034 10.1992 131.866 10.1992C133.678 10.1992 134.874 10.9033 134.888 12.0312C134.874 13.166 133.678 13.8428 131.866 13.8496C130.034 13.8428 128.845 13.166 128.845 12.0312ZM129.761 18.3477V17.5684H137.964V20.084H130.868V21.1777H138.36V21.9707H129.815V19.332H136.897V18.3477H129.761ZM129.856 12.0312C129.85 12.6738 130.643 13.1113 131.866 13.1113C133.076 13.1113 133.869 12.6738 133.876 12.0312C133.869 11.3818 133.076 10.9443 131.866 10.9512C130.643 10.9443 129.85 11.3818 129.856 12.0312Z" fill="#6D7687"/>
<path d="M176.376 9.95312V15.1348H178.317V16.0371H176.376V22.1074H175.296V9.95312H176.376ZM166.792 18.8672C167.783 18.8672 168.938 18.8604 170.142 18.8262V17.4863C168.727 17.3223 167.804 16.4883 167.817 15.2852C167.804 13.9111 168.966 13.0225 170.688 13.0293C172.384 13.0225 173.566 13.9111 173.573 15.2852C173.566 16.4951 172.63 17.3223 171.222 17.4863V18.7852C172.35 18.7305 173.498 18.6348 174.558 18.4844L174.626 19.3047C171.974 19.7559 169.103 19.7832 166.97 19.7832L166.792 18.8672ZM167.011 12.3184V11.4434H170.142V9.98047H171.222V11.4434H174.339V12.3184H167.011ZM168.815 15.2852C168.822 16.126 169.561 16.6797 170.688 16.666C171.796 16.6797 172.541 16.126 172.548 15.2852C172.541 14.4375 171.796 13.8633 170.688 13.8633C169.561 13.8633 168.822 14.4375 168.815 15.2852Z" fill="#6D7687"/>
<path d="M212.04 11.0879C212.047 12.8037 214.275 14.2803 216.47 14.5879L216.032 15.4629C214.146 15.1484 212.272 14.1025 211.493 12.6123C210.714 14.1162 208.848 15.1484 206.954 15.4629L206.517 14.5879C208.711 14.2803 210.933 12.8311 210.933 11.0879V10.3906H212.04V11.0879ZM205.942 17.7051V16.8027H217.017V17.7051H211.985V22.1074H210.933V17.7051H205.942Z" fill="#6D7687"/>
<path d="M254.608 10.4727V14.5742H251.013V16.1328H256.017V17.0078H244.942V16.1328H249.946V14.5742H246.378V10.4727H254.608ZM246.173 19.1406V18.2793H254.649V22.1074H253.569V19.1406H246.173ZM247.431 13.7129H253.542V11.334H247.431V13.7129Z" fill="#6D7687"/>
<path d="M293.608 10.6094V11.5117C293.608 12.4551 293.608 13.5625 293.287 15.0801H295.071V15.9688H283.942V15.0801H292.207C292.549 13.5488 292.549 12.4551 292.542 11.5117V11.498H285.351V10.6094H293.608ZM285.31 21.9434V17.6504H293.663V21.9434H285.31ZM286.376 21.0684H292.597V18.498H286.376V21.0684Z" fill="white"/>
<line x1="47" y1="24.2929" x2="63.7929" y2="7.5" stroke="#FF843C" stroke-linecap="round"/>
<line x1="85" y1="24.2929" x2="101.793" y2="7.5" stroke="#FF843C" stroke-linecap="round"/>
</svg>
