<svg width="71" height="32" viewBox="0 0 71 32" fill="none" xmlns="http://www.w3.org/2000/svg">
<rect width="71" height="32" rx="16" fill="#F5F7FA"/>
<rect x="39" width="32" height="32" rx="16" fill="#6832DB"/>
<rect x="0.5" y="0.5" width="31" height="31" rx="15.5" stroke="#6832DB"/>
<path d="M20.6084 10.6094V11.5117C20.6084 12.4551 20.6084 13.5625 20.2871 15.0801H22.0713V15.9688H10.9424V15.0801H19.207C19.5488 13.5488 19.5488 12.4551 19.542 11.5117V11.498H12.3506V10.6094H20.6084ZM12.3096 21.9434V17.6504H20.6631V21.9434H12.3096ZM13.376 21.0684H19.5967V18.498H13.376V21.0684Z" fill="#6D7687"/>
<path d="M59.7861 16.2832V17.1582H56.0127V19.7012H61.0713V20.5898H49.9424V19.7012H54.9463V17.1582H51.3779V10.9512H59.6494V11.8398H52.4717V13.5762H59.3896V14.4512H52.4717V16.2832H59.7861Z" fill="#FF843C"/>
</svg>
