<svg width="40" height="40" viewBox="0 0 40 40" fill="none" xmlns="http://www.w3.org/2000/svg">
<path d="M16.1111 30.801H10.9259C10.213 30.801 9.60263 30.5475 9.09492 30.0405C8.5872 29.5334 8.33334 28.924 8.33334 28.212V10.089C8.33334 9.37702 8.5872 8.76753 9.09492 8.26052C9.60263 7.75351 10.213 7.5 10.9259 7.5H29.0741C29.787 7.5 30.3974 7.75351 30.9051 8.26052C31.4128 8.76753 31.6667 9.37702 31.6667 10.089V28.212C31.6667 28.924 31.4128 29.5334 30.9051 30.0405C30.3974 30.5475 29.787 30.801 29.0741 30.801H23.8889L20.9074 33.7783C20.6482 34.0372 20.3457 34.1667 20 34.1667C19.6543 34.1667 19.3519 34.0372 19.0926 33.7783L16.1111 30.801ZM10.9259 28.212H17.1482L20 31.0599L22.8519 28.212H29.0741V10.089H10.9259V28.212ZM19.8704 26.9175C20.3241 26.9175 20.7076 26.7611 21.0208 26.4482C21.3341 26.1354 21.4908 25.7524 21.4908 25.2994C21.4908 24.8463 21.3341 24.4633 21.0208 24.1505C20.7076 23.8376 20.3241 23.6812 19.8704 23.6812C19.4167 23.6812 19.0332 23.8376 18.7199 24.1505C18.4066 24.4633 18.25 24.8463 18.25 25.2994C18.25 25.7524 18.4066 26.1354 18.7199 26.4482C19.0332 26.7611 19.4167 26.9175 19.8704 26.9175ZM22.1389 15.267C22.1389 15.6338 22.0201 16.0275 21.7824 16.4482C21.5448 16.8689 21.1451 17.3274 20.5833 17.8236C20.2161 18.1472 19.919 18.4547 19.6921 18.746C19.4653 19.0372 19.2762 19.3339 19.125 19.6359C19.0386 19.8085 18.9738 19.9811 18.9306 20.1537C18.8874 20.3263 18.8441 20.5205 18.8009 20.7362C18.7577 21.0599 18.8441 21.3403 19.0602 21.5777C19.2762 21.815 19.5571 21.9337 19.9028 21.9337C20.2053 21.9337 20.4753 21.8258 20.713 21.61C20.9506 21.3943 21.1127 21.103 21.1991 20.7362C21.2639 20.4342 21.3881 20.1537 21.5718 19.8948C21.7554 19.6359 22.0525 19.3015 22.463 18.8916C23.2191 18.1365 23.7539 17.5 24.0671 16.9822C24.3804 16.4644 24.537 15.8927 24.537 15.267C24.537 14.1019 24.1428 13.1634 23.3542 12.4515C22.5656 11.7395 21.4908 11.3835 20.1296 11.3835C19.1574 11.3835 18.3148 11.5885 17.6019 11.9984C16.8889 12.4083 16.3164 12.98 15.8843 13.7136C15.733 13.9725 15.7276 14.2422 15.8681 14.5227C16.0085 14.8031 16.2299 14.9973 16.5324 15.1052C16.8133 15.2131 17.0941 15.2131 17.375 15.1052C17.6559 14.9973 17.8827 14.8247 18.0556 14.5874C18.2932 14.2853 18.5849 14.0426 18.9306 13.8592C19.2762 13.6758 19.6759 13.5841 20.1296 13.5841C20.6914 13.5841 21.1667 13.7406 21.5556 14.0534C21.9445 14.3662 22.1389 14.7708 22.1389 15.267Z" fill="#6832DB"/>
</svg>
