<?xml version="1.0" encoding="UTF-8"?>
<svg id="_레이어_1" data-name="레이어_1" xmlns="http://www.w3.org/2000/svg" version="1.1" viewBox="0 0 327 271">
  <!-- Generator: Adobe Illustrator 29.1.0, SVG Export Plug-In . SVG Version: 2.1.0 Build 142)  -->
  <defs>
    <style>
      .st0 {
        fill: #f0eef9;
      }

      .st1 {
        fill: #6832db;
      }

      .st2 {
        fill: none;
        stroke: #fff;
        stroke-width: 4px;
      }
    </style>
  </defs>
  <path class="st0" d="M321.4,136.9l1.4-1.4-1.4-1.4-91.9-91.9c-51.5-51.5-135.1-51.5-186.7,0-51.5,51.5-51.5,135.1,0,186.7,51.5,51.5,135.1,51.5,186.7,0l91.9-91.9Z"/>
  <path class="st2" d="M321.4,136.9l1.4-1.4-1.4-1.4-91.9-91.9c-51.5-51.5-135.1-51.5-186.7,0-51.5,51.5-51.5,135.1,0,186.7,51.5,51.5,135.1,51.5,186.7,0l91.9-91.9Z"/>
  <path class="st1" d="M267.4,134.8c-.6,0-1,.4-1,1s.4,1,1,1v-2ZM292.1,136.6c.4-.4.4-1,0-1.4l-6.4-6.4c-.4-.4-1-.4-1.4,0-.4.4-.4,1,0,1.4l5.7,5.7-5.7,5.7c-.4.4-.4,1,0,1.4.4.4,1,.4,1.4,0l6.4-6.4ZM267.4,136.8h24v-2h-24v2Z"/>
</svg>