<svg width="56" height="56" viewBox="0 0 56 56" fill="none" xmlns="http://www.w3.org/2000/svg">
<path d="M9.3335 19.6093H46.6668V14.7181C46.6668 14.5384 46.592 14.3739 46.4422 14.2246C46.2929 14.0749 46.1284 14 45.9487 14H10.0516C9.87191 14 9.70741 14.0749 9.55808 14.2246C9.40836 14.3739 9.3335 14.5384 9.3335 14.7181V19.6093ZM5.8335 14.7181C5.8335 13.5394 6.24183 12.5417 7.0585 11.725C7.87516 10.9083 8.87286 10.5 10.0516 10.5H45.9487C47.1275 10.5 48.1252 10.9083 48.9418 11.725C49.7585 12.5417 50.1668 13.5394 50.1668 14.7181V27.0573H9.3335V41.2819C9.3335 41.4616 9.40836 41.6261 9.55808 41.7754C9.70741 41.9251 9.87191 42 10.0516 42H20.2687V45.5H10.0516C8.87286 45.5 7.87516 45.0917 7.0585 44.275C6.24183 43.4583 5.8335 42.4606 5.8335 41.2819V14.7181ZM34.5247 49.6283L25.4154 40.5189L27.8747 38.0602L34.5247 44.6384L47.7524 31.4102L50.2117 33.9407L34.5247 49.6283ZM9.3335 14.7181V41.2819C9.3335 41.4616 9.40836 41.6261 9.55808 41.7754C9.70741 41.9251 9.87191 42 10.0516 42H9.3335V31.4329V38.0468V14H10.0516C9.87191 14 9.70741 14.0749 9.55808 14.2246C9.40836 14.3739 9.3335 14.5384 9.3335 14.7181Z" fill="#CFD7E5"/>
</svg>
