<svg width="24" height="24" viewBox="0 0 24 24" fill="none" xmlns="http://www.w3.org/2000/svg">
<path d="M9.09116 19.0088L9.0875 19.0125H9.1H14.9V19.0177L14.9088 19.0088L19.0088 14.9088L19.0125 14.9125V14.9V9.1H19.0177L19.0088 9.09116L14.9088 4.99116L14.9125 4.9875H14.9H9.1V4.98232L9.09116 4.99116L4.99116 9.09116L4.9875 9.0875V9.1V14.9H4.98232L4.99116 14.9088L9.09116 19.0088ZM12.5667 16.4704C12.4143 16.6228 12.2257 16.699 12 16.699C11.7743 16.699 11.5857 16.6228 11.4333 16.4704C11.281 16.318 11.2048 16.1294 11.2048 15.9038C11.2048 15.6781 11.281 15.4895 11.4333 15.3371C11.5857 15.1849 11.7743 15.1088 12 15.1088C12.2257 15.1088 12.4143 15.1849 12.5667 15.3371C12.719 15.4895 12.7952 15.6781 12.7952 15.9038C12.7952 16.1294 12.719 16.318 12.5667 16.4704ZM12.7375 13.2183H11.2625V7.20475H12.7375V13.2183ZM15.5378 20.4875H8.46667L3.5125 15.5378V8.46667L8.46218 3.5125H15.5333L20.4875 8.46218V15.5333L15.5378 20.4875Z" fill="#FF342E" stroke="#FF342E" stroke-width="0.025"/>
</svg>
